#!OML:ASF Y:\EmotionMaleHayes\Project 1\Capture day 1\Session 1\Male1.ASF
:FULLY-SPECIFIED
:DEGREES
140
root -28.7393 17.1261 1.03724 19.3605 87.1101 17.9738
lowerback 4.3287 1.90695 -4.24708
upperback 0.827196 2.35506 -0.393378
thorax -1.72847 1.2038 1.83626
lowerneck -21.602 2.08647 5.36012
upperneck 26.2723 1.45852 -0.37032
head 12.3403 1.25453 -0.77336
rclavicle 1.96548e-014 -1.49089e-014
rhumerus -36.5699 6.27305 -90.255
rradius 33.6295
rwrist 0.808551
rhand -13.653 -29.076
rfingers 7.12502
rthumb 12.4636 -58.6843
lclavicle 1.96548e-014 -1.49089e-014
lhumerus -30.8844 -11.4073 92.2988
lradius 24.7323
lwrist -7.86576
lhand -22.1469 -26.7159
lfingers 7.12502
lthumb 4.26694 3.22109
rfemur 8.31722 -5.01329 13.7295
rtibia 1.8942
rfoot -16.251 -5.53323
rtoes 2.24188
lfemur 10.2391 -1.44943 -16.4819
ltibia -2.77302
lfoot -9.7022 7.53975
ltoes -17.1535
141
root -28.739 17.1259 1.03771 21.0079 87.1203 19.6296
lowerback 4.31599 1.90837 -4.31901
upperback 0.835204 2.35427 -0.448084
thorax -1.71359 1.20355 1.82083
lowerneck -21.5241 2.06936 5.41774
upperneck 26.1829 1.41531 -0.362666
head 12.2887 1.24041 -0.788076
rclavicle -5.2181e-016 1.39149e-015
rhumerus -36.5801 6.23766 -90.3273
rradius 33.705
rwrist 0.791215
rhand -13.8386 -28.8517
rfingers 7.12502
rthumb 12.2847 -58.4709
lclavicle -5.2181e-016 1.39149e-015
lhumerus -30.851 -11.5593 92.2604
lradius 24.75
lwrist -7.72148
lhand -21.2869 -26.8079
lfingers 7.12502
lthumb 5.09737 3.11082
rfemur 8.34928 -4.94114 13.6617
rtibia 1.84869
rfoot -16.219 -5.62745
rtoes 2.33835
lfemur 10.2312 -1.3758 -16.5369
ltibia -2.75941
lfoot -9.66242 7.47436
ltoes -17.2159
142
root -28.7384 17.126 1.03763 21.9888 87.1047 20.5877
lowerback 4.24186 1.9133 -4.36522
upperback 0.840582 2.36258 -0.477767
thorax -1.6677 1.20705 1.81825
lowerneck -21.539 2.09432 5.45715
upperneck 26.1207 1.41559 -0.302859
head 12.2676 1.25075 -0.771977
rclavicle 1.64494e-014 1.98785e-016
rhumerus -36.5778 6.22838 -90.3493
rradius 33.7029
rwrist 0.740538
rhand -13.6823 -28.948
rfingers 7.12502
rthumb 12.4355 -58.558
lclavicle 1.64494e-014 1.98785e-016
lhumerus -30.8337 -11.6382 92.2536
lradius 24.7464
lwrist -7.70619
lhand -21.9846 -26.7249
lfingers 7.12502
lthumb 4.42365 3.20895
rfemur 8.32233 -4.98625 13.593
rtibia 1.86249
rfoot -16.1553 -5.62111
rtoes 1.61994
lfemur 10.1576 -1.14112 -16.5196
ltibia -2.67961
lfoot -9.65936 7.2831
ltoes -17.2046
143
root -28.7392 17.1263 1.03717 22.1497 87.0961 20.7349
lowerback 4.21219 1.90841 -4.35794
upperback 0.835809 2.35768 -0.482348
thorax -1.65522 1.20437 1.8107
lowerneck -21.4876 2.12022 5.4254
upperneck 26.0601 1.45705 -0.270591
head 12.2343 1.26886 -0.748003
rclavicle -6.70898e-016 1.19271e-015
rhumerus -36.565 6.22174 -90.325
rradius 33.6344
rwrist 0.774956
rhand -13.482 -29.1424
rfingers 7.12502
rthumb 12.6286 -58.7407
lclavicle -6.70898e-016 1.19271e-015
lhumerus -30.8366 -11.5223 92.2368
lradius 24.7075
lwrist -7.94082
lhand -21.1918 -26.5638
lfingers 7.12502
lthumb 5.18919 3.35265
rfemur 8.28934 -5.02697 13.5757
rtibia 1.89817
rfoot -16.153 -5.64952
rtoes 1.06196
lfemur 9.98522 -0.599138 -16.3512
ltibia -2.38729
lfoot -9.69827 6.69538
ltoes -17.6021
144
root -28.7392 17.1256 1.0362 22.6432 87.1101 21.2305
lowerback 4.2295 1.91721 -4.34173
upperback 0.827851 2.36882 -0.491441
thorax -1.67279 1.21026 1.79085
lowerneck -21.4905 2.09363 5.37083
upperneck 26.0561 1.43898 -0.27376
head 12.2318 1.25472 -0.743143
rclavicle 7.30534e-015 2.18663e-015
rhumerus -36.5268 6.11144 -90.2634
rradius 33.5519
rwrist 0.916062
rhand -13.4479 -29.1756
rfingers 7.12502
rthumb 12.6614 -58.7718
lclavicle 7.30534e-015 2.18663e-015
lhumerus -30.8808 -11.5973 92.3061
lradius 24.7288
lwrist -8.04549
lhand -22.2033 -26.5318
lfingers 7.12502
lthumb 4.21242 3.40629
rfemur 8.29245 -5.16014 13.5093
rtibia 1.92202
rfoot -16.1295 -5.53587
rtoes 1.24616
lfemur 9.9584 -0.574762 -16.3582
ltibia -2.32988
lfoot -9.74636 6.59328
ltoes -17.7764
145
root -28.7383 17.1261 1.03637 22.8105 87.0677 21.4465
lowerback 4.27002 1.93863 -4.37977
upperback 0.845807 2.39431 -0.494748
thorax -1.67996 1.22319 1.80606
lowerneck -21.535 2.07734 5.38406
upperneck 26.0745 1.42051 -0.317915
head 12.2476 1.24192 -0.764904
rclavicle 2.70099e-014 -1.33186e-014
rhumerus -36.4755 6.11386 -90.2447
rradius 33.5309
rwrist 0.932253
rhand -13.4192 -29.2491
rfingers 7.12502
rthumb 12.6891 -58.8436
lclavicle 2.70099e-014 -1.33186e-014
lhumerus -30.9307 -11.8261 92.3879
lradius 24.8226
lwrist -7.92887
lhand -21.4977 -26.4607
lfingers 7.12502
lthumb 4.89378 3.46282
rfemur 8.3439 -5.213 13.4448
rtibia 1.92984
rfoot -16.1418 -5.39578
rtoes 1.52791
lfemur 10.1571 -1.17854 -16.594
ltibia -2.58416
lfoot -9.82225 7.24702
ltoes -17.0777
146
root -28.7395 17.1257 1.03705 23.7125 87.0422 22.3294
lowerback 4.22785 1.90801 -4.49454
upperback 0.848134 2.35102 -0.481179
thorax -1.65629 1.20172 1.88826
lowerneck -21.5821 2.12441 5.48568
upperneck 26.1315 1.4853 -0.440202
head 12.2836 1.26527 -0.817008
rclavicle -1.75179e-014 1.98785e-016
rhumerus -36.4206 6.28675 -90.2735
rradius 33.5474
rwrist 0.779702
rhand -13.3589 -29.3775
rfingers 7.12502
rthumb 12.7472 -58.9684
lclavicle -1.75179e-014 1.98785e-016
lhumerus -30.8968 -11.6683 92.3314
lradius 24.8193
lwrist -8.08201
lhand -22.4737 -26.5896
lfingers 7.12502
lthumb 3.95137 3.35351
rfemur 8.3248 -5.05645 13.4291
rtibia 1.89213
rfoot -16.2292 -5.5154
rtoes 2.06658
lfemur 10.2113 -1.59149 -16.7947
ltibia -2.74118
lfoot -9.82254 7.68583
ltoes -16.8267
147
root -28.7407 17.1249 1.0361 25.2743 87.0366 23.8372
lowerback 4.17541 1.88357 -4.56995
upperback 0.817337 2.31666 -0.50209
thorax -1.65847 1.18537 1.9121
lowerneck -21.603 2.12495 5.52493
upperneck 26.1869 1.48641 -0.488421
head 12.3105 1.26463 -0.841433
rclavicle 4.47266e-015 5.96354e-015
rhumerus -36.3814 6.24109 -90.2718
rradius 33.4767
rwrist 0.764721
rhand -13.373 -29.3478
rfingers 7.12502
rthumb 12.7336 -58.9395
lclavicle 4.47266e-015 5.96354e-015
lhumerus -30.86 -11.4663 92.2482
lradius 24.7447
lwrist -8.45552
lhand -21.7004 -26.6095
lfingers 7.12502
lthumb 4.69808 3.31845
rfemur 8.26845 -4.97113 13.3678
rtibia 1.87517
rfoot -16.2383 -5.58544
rtoes 2.64254
lfemur 10.1163 -1.42734 -16.8239
ltibia -2.70857
lfoot -9.6857 7.45915
ltoes -17.2478
148
root -28.7407 17.127 1.03489 25.8352 86.9763 24.4329
lowerback 4.16113 1.89964 -4.62437
upperback 0.854355 2.33802 -0.512301
thorax -1.61547 1.1951 1.93192
lowerneck -21.6943 2.09755 5.53681
upperneck 26.2238 1.45822 -0.56479
head 12.3427 1.24293 -0.876726
rclavicle 2.74074e-014 -2.3059e-014
rhumerus -36.2571 6.09664 -90.2077
rradius 33.3645
rwrist 0.887115
rhand -13.4568 -29.1843
rfingers 7.12502
rthumb 12.6528 -58.781
lclavicle 2.74074e-014 -2.3059e-014
lhumerus -30.7607 -11.3748 92.1954
lradius 24.6989
lwrist -8.62021
lhand -22.55 -26.7599
lfingers 7.12502
lthumb 3.87763 3.18461
rfemur 8.28713 -5.05302 13.2605
rtibia 1.92561
rfoot -16.2012 -5.44142
rtoes 2.72217
lfemur 10.1334 -1.19 -16.8198
ltibia -2.66978
lfoot -9.572 7.22273
ltoes -17.701
149
root -28.7406 17.1288 1.03441 25.6484 86.9402 24.2843
lowerback 4.17455 1.9116 -4.64038
upperback 0.870799 2.35326 -0.50723
thorax -1.60791 1.20246 1.94502
lowerneck -21.7121 2.07886 5.51723
upperneck 26.2248 1.4396 -0.574427
head 12.3457 1.23115 -0.880207
rclavicle 2.6339e-015 -1.5704e-014
rhumerus -36.2503 6.09673 -90.1932
rradius 33.4379
rwrist 0.870448
rhand -13.3679 -29.0938
rfingers 7.12502
rthumb 12.7385 -58.6852
lclavicle 2.6339e-015 -1.5704e-014
lhumerus -30.7501 -11.299 92.1567
lradius 24.736
lwrist -8.51813
lhand -21.3539 -26.7872
lfingers 7.12502
lthumb 5.03261 3.13301
rfemur 8.31238 -5.15037 13.2089
rtibia 1.96475
rfoot -16.1825 -5.33262
rtoes 2.50971
lfemur 10.1874 -1.15486 -16.8304
ltibia -2.67775
lfoot -9.62735 7.22439
ltoes -17.417
